<mxfile host="Electron" agent="Mozilla/5.0 (X11; Linux x86_64) AppleWebKit/537.36 (KHTML, like Gecko) draw.io/24.7.17 Chrome/128.0.6613.36 Electron/32.0.1 Safari/537.36" version="24.7.17">
  <diagram name="Page-1" id="gh0HCLQolYVsVOX0GlnS">
    <mxGraphModel dx="1647" dy="947" grid="1" gridSize="10" guides="1" tooltips="1" connect="1" arrows="1" fold="1" page="1" pageScale="1" pageWidth="850" pageHeight="1100" math="0" shadow="0">
      <root>
        <mxCell id="0" />
        <mxCell id="1" parent="0" />
        <mxCell id="T-315IAXUyPmkgYAbKTJ-10" value="branch" style="edgeStyle=orthogonalEdgeStyle;rounded=0;orthogonalLoop=1;jettySize=auto;html=1;" edge="1" parent="1" source="T-315IAXUyPmkgYAbKTJ-8" target="T-315IAXUyPmkgYAbKTJ-9">
          <mxGeometry relative="1" as="geometry" />
        </mxCell>
        <mxCell id="T-315IAXUyPmkgYAbKTJ-12" value="&lt;span style=&quot;color: rgb(0, 0, 0); font-family: Helvetica; font-size: 11px; font-style: normal; font-variant-ligatures: normal; font-variant-caps: normal; font-weight: 400; letter-spacing: normal; orphans: 2; text-align: center; text-indent: 0px; text-transform: none; widows: 2; word-spacing: 0px; -webkit-text-stroke-width: 0px; white-space: nowrap; background-color: rgb(255, 255, 255); text-decoration-thickness: initial; text-decoration-style: initial; text-decoration-color: initial; display: inline !important; float: none;&quot;&gt;renamer_empty&lt;/span&gt;" style="edgeStyle=orthogonalEdgeStyle;rounded=0;orthogonalLoop=1;jettySize=auto;html=1;" edge="1" parent="1" source="T-315IAXUyPmkgYAbKTJ-8" target="T-315IAXUyPmkgYAbKTJ-11">
          <mxGeometry relative="1" as="geometry" />
        </mxCell>
        <mxCell id="T-315IAXUyPmkgYAbKTJ-19" value="any_full" style="edgeStyle=orthogonalEdgeStyle;rounded=0;orthogonalLoop=1;jettySize=auto;html=1;" edge="1" parent="1" source="T-315IAXUyPmkgYAbKTJ-8" target="T-315IAXUyPmkgYAbKTJ-18">
          <mxGeometry relative="1" as="geometry" />
        </mxCell>
        <mxCell id="T-315IAXUyPmkgYAbKTJ-8" value="Working&lt;div&gt;&lt;ul&gt;&lt;li&gt;all&lt;/li&gt;&lt;/ul&gt;&lt;/div&gt;" style="rounded=0;whiteSpace=wrap;html=1;fontSize=15;align=left;verticalAlign=top;" vertex="1" parent="1">
          <mxGeometry x="80" y="240" width="120" height="80" as="geometry" />
        </mxCell>
        <mxCell id="T-315IAXUyPmkgYAbKTJ-13" value="renamer_empty" style="edgeStyle=orthogonalEdgeStyle;rounded=0;orthogonalLoop=1;jettySize=auto;html=1;" edge="1" parent="1" source="T-315IAXUyPmkgYAbKTJ-9" target="T-315IAXUyPmkgYAbKTJ-17">
          <mxGeometry relative="1" as="geometry">
            <Array as="points">
              <mxPoint x="380" y="430" />
              <mxPoint x="380" y="430" />
            </Array>
          </mxGeometry>
        </mxCell>
        <mxCell id="T-315IAXUyPmkgYAbKTJ-20" value="any_full" style="edgeStyle=orthogonalEdgeStyle;rounded=0;orthogonalLoop=1;jettySize=auto;html=1;" edge="1" parent="1" source="T-315IAXUyPmkgYAbKTJ-9" target="T-315IAXUyPmkgYAbKTJ-18">
          <mxGeometry relative="1" as="geometry" />
        </mxCell>
        <mxCell id="T-315IAXUyPmkgYAbKTJ-22" value="clrear/delete tag" style="edgeStyle=orthogonalEdgeStyle;rounded=0;orthogonalLoop=1;jettySize=auto;html=1;" edge="1" parent="1" source="T-315IAXUyPmkgYAbKTJ-9" target="T-315IAXUyPmkgYAbKTJ-8">
          <mxGeometry relative="1" as="geometry">
            <Array as="points">
              <mxPoint x="260" y="310" />
              <mxPoint x="260" y="310" />
            </Array>
          </mxGeometry>
        </mxCell>
        <mxCell id="T-315IAXUyPmkgYAbKTJ-9" value="Working&lt;div&gt;&lt;ul&gt;&lt;li&gt;all&lt;/li&gt;&lt;/ul&gt;&lt;/div&gt;" style="rounded=0;whiteSpace=wrap;html=1;fontSize=15;align=left;verticalAlign=top;fillColor=#dae8fc;strokeColor=#6c8ebf;" vertex="1" parent="1">
          <mxGeometry x="320" y="240" width="120" height="80" as="geometry" />
        </mxCell>
        <mxCell id="T-315IAXUyPmkgYAbKTJ-11" value="Working&lt;div&gt;&lt;ul&gt;&lt;li&gt;resolver&lt;/li&gt;&lt;/ul&gt;&lt;div&gt;Halt&lt;br&gt;&lt;div&gt;&lt;ul&gt;&lt;li&gt;loader&lt;/li&gt;&lt;li&gt;decoder&lt;/li&gt;&lt;li&gt;renamer&lt;/li&gt;&lt;/ul&gt;&lt;/div&gt;&lt;/div&gt;&lt;/div&gt;" style="rounded=0;whiteSpace=wrap;html=1;fontSize=15;align=left;verticalAlign=top;" vertex="1" parent="1">
          <mxGeometry x="80" y="400" width="120" height="200" as="geometry" />
        </mxCell>
        <mxCell id="T-315IAXUyPmkgYAbKTJ-23" value="clear/delete tag" style="edgeStyle=orthogonalEdgeStyle;rounded=0;orthogonalLoop=1;jettySize=auto;html=1;" edge="1" parent="1" source="T-315IAXUyPmkgYAbKTJ-17" target="T-315IAXUyPmkgYAbKTJ-11">
          <mxGeometry relative="1" as="geometry" />
        </mxCell>
        <mxCell id="T-315IAXUyPmkgYAbKTJ-17" value="Working&lt;div&gt;&lt;ul&gt;&lt;li&gt;resolver&lt;/li&gt;&lt;/ul&gt;&lt;div&gt;Halt&lt;br&gt;&lt;div&gt;&lt;ul&gt;&lt;li&gt;loader&lt;/li&gt;&lt;li&gt;decoder&lt;/li&gt;&lt;li&gt;renamer&lt;/li&gt;&lt;/ul&gt;&lt;/div&gt;&lt;/div&gt;&lt;/div&gt;" style="rounded=0;whiteSpace=wrap;html=1;fontSize=15;align=left;verticalAlign=top;fillColor=#dae8fc;strokeColor=#6c8ebf;" vertex="1" parent="1">
          <mxGeometry x="320" y="400" width="120" height="200" as="geometry" />
        </mxCell>
        <mxCell id="T-315IAXUyPmkgYAbKTJ-18" value="Working&lt;div&gt;&lt;ul&gt;&lt;li&gt;none&lt;/li&gt;&lt;/ul&gt;&lt;/div&gt;" style="rounded=0;whiteSpace=wrap;html=1;fontSize=15;align=left;verticalAlign=top;fontStyle=0" vertex="1" parent="1">
          <mxGeometry x="200" y="80" width="120" height="80" as="geometry" />
        </mxCell>
      </root>
    </mxGraphModel>
  </diagram>
</mxfile>
